<?xml version="1.0" encoding="utf-8"?>
<!-- Generator: Adobe Illustrator 21.1.0, SVG Export Plug-In . SVG Version: 6.00 Build 0)  -->
<svg version="1.1" id="Layer_1" xmlns="http://www.w3.org/2000/svg" xmlns:xlink="http://www.w3.org/1999/xlink" x="0px" y="0px"
	 viewBox="0 0 2052 652" style="enable-background:new 0 0 2052 652;" xml:space="preserve">
<style type="text/css">
	.st0{fill:#010101;}
	.st1{fill:#6D91AA;}
	.st2{fill:#8F8F8F;}
</style>
<g id="technologies" transform="translate(430.000000, 0.000000)">
	<path id="hotel-copy-3" class="st0" d="M-177.5,182c16.1,16.1,23,37.8,23,65.3v139.9h-29.9v-133c0-21.8-5.7-37.8-18.3-50.4
		s-28.7-18.3-49.4-18.3c-25.2,0-44.7,9.2-59.6,25.2c-15,15.9-21.8,37.8-21.8,65.3v111.1H-362V64h28.7v149.1
		c15-35.6,45.8-53.9,90.5-55.1C-214.1,158-193.4,166.1-177.5,182z M73.7,173c17.1,9.2,30.9,23,41.3,40.1s15,36.8,15,59.6
		c0,21.8-4.5,42.5-15,59.6c-10.2,17.1-23,30.9-41.3,41.3c-17.1,9.2-36.8,15-59.6,15c-21.8,0-41.3-4.5-59.6-15
		c-17.1-9.2-30.9-23-41.3-41.3c-10.2-17.1-15-37.8-15-59.6s4.5-41.3,15-59.6c10.2-17.1,23-30.9,41.3-40.1c17.1-9.2,36.8-15,59.6-15
		C36.9,158,56.6,163.8,73.7,173z M-29.6,194.6c-12.6,8.1-23,18.3-30.9,32.1c-6.9,13.8-10.2,28.7-10.2,47c0,17.1,3.3,33.2,10.2,47
		s17.1,24,30.9,32.1c12.6,8.1,27.5,11.4,44.7,11.4c16.1,0,30.9-3.3,44.7-11.4c12.6-8.1,23-18.3,30.9-32.1
		c6.9-13.8,10.2-29.9,10.2-47s-3.3-33.2-10.2-47s-17.1-24-30.9-32.1c-12.6-8.1-27.5-11.4-44.7-11.4S-17,187.9-29.6,194.6z
		 M306.4,371.3c-16.1,10.2-32.1,16.1-50.4,17.1c-17.1,0-30.9-5.7-41.3-16.1c-10.4-10.4-15-26.4-15-48.2V188.7h-32.1v-22.6H201v-58.6
		h28.7v58.6h73.4v23h-73.4v130.6c0,28.7,10.2,42.5,30.9,42.5c11.4,0,24-4.5,37.8-12.6L306.4,371.3z M528.9,192.5
		c18.3,23,27.5,52.7,25.2,90.5H363.9c2.4,24,11.4,43.5,27.5,58.4c16.1,15,35.6,23,59.6,23c15,0,27.5-2.4,40.1-8.1
		c12.6-5.7,23-12.6,32.1-21.8l16.1,16.1c-11.4,11.4-24,20.7-40.1,27.5s-32.1,10.2-51.5,10.2c-21.8,0-41.3-4.5-58.4-15
		c-17.5-9-31.1-22.8-40.3-39.9c-9.2-17.1-15-36.8-15-59.6c0-21.8,4.5-41.3,15-59.6c9.2-17.1,23-30.9,40.1-41.3
		c17.1-9.2,36.8-15,57.2-15C483.1,158,509.4,169.5,528.9,192.5z M527.7,260.1c-1.2-24-9.2-42.5-24-56.3
		c-15-13.8-33.2-20.7-56.3-20.7s-42.5,6.9-57.2,21.8c-15,13.8-24,33.2-26.4,56.3h164.1v-1.2H527.7z M617.2,64H646v322.2h-28.7V64z"
		/>
	<path id="_x33_6O-Copy-5" class="st1" d="M793.7,238.3c38.9-1.2,67.7,19.5,67.7,59.6c0,35.6-26.4,64.1-62,64.1
		c-32.1,0-59.6-23-62-55.1H703c1.2,53.9,43.5,88.3,95.2,88.3c55.1,0,99.7-38.9,99.7-95.2c0-32.1-15-64.1-45.8-77.9
		c26.4-12.6,41.3-41.3,41.3-70c0-52.7-38.9-87.1-90.5-87.1c-52.7,0-83.8,33.2-88.3,84.8h35.6c3.3-29.9,20.7-51.5,52.7-51.5
		c33.2,0,56.3,21.8,56.3,56.3c0,40.1-29.9,50.4-63.1,51.5v32.1h-2.4V238.3z M1096.4,64l26.4,19.5l-73.4,99.7l1.2,1.2
		c4.5-1.2,9.2-2.4,13.8-3.3c4.5-1.2,10.2-1.2,15-1.2c58.4,0,103.3,48.2,103.3,105.4c0,60.8-50.4,110.2-110.2,110.2
		c-60.8,0-110.2-49.4-110.2-109c0-29.9,12.6-53.9,29.9-76.9L1096.4,64z M1071.3,362c41.3,0,74.6-34.4,74.6-75.7
		s-33.2-73.4-74.6-73.4s-74.6,32.1-74.6,73.4C996.7,327.8,1030,362,1071.3,362z M1387.8,64c90.5,0,166.2,74.6,166.2,166.2
		s-75.7,165-166.2,165c-90.5,0-166.2-73.4-166.2-165S1297.1,64,1387.8,64z M1387.8,97.3c-73.4,0-130.6,59.6-130.6,131.8
		s58.4,131.8,130.6,131.8c72.2,0,130.6-59.6,130.6-131.8C1519.6,156.9,1461.2,97.3,1387.8,97.3z"/>
	<path id="TECHNOLOGIES-Copy-3" class="st2" d="M-318.5,498.6v76.9h-15v-76.9H-361v-13.8h71v13.8H-318.5z M-133.8,484.8v15H-182v23
		h43.5v13.8H-182v24h50.4v15H-197v-91.7h63.1V484.8z M4.9,561.7c5.7,0,10.2-1.2,13.8-2.4c3.3-2.4,8.1-4.5,11.4-8.1l10.2,10.2
		c-9.2,10.2-21.8,16.1-35.6,16.1s-25.2-4.5-34.4-13.8s-13.8-20.7-13.8-33.2s4.5-25.2,13.8-34.4c9.2-9.2,20.7-13.8,35.6-13.8
		s26.4,5.7,35.6,16.1l-10.2,10.2c-4.5-4.5-8.1-6.9-12.6-9.2c-3.3-1.2-8.1-2.4-13.8-2.4c-9.2,0-17.1,3.3-23,9.2
		c-5.7,5.7-9.2,13.8-9.2,23s3.3,17.1,9.2,23C-10.1,558.2-3.2,561.7,4.9,561.7z M135.7,575.5v-91.7h15v38.9h44.7v-38.9h15v91.7h-15
		v-37.8h-44.7v37.8H135.7z M382.2,484.8h15v91.7h-17.3L328.3,510v66.5h-15v-91.7h15l52.7,67.7v-67.7H382.2z M540.3,496.2
		c-9.2,0-17.1,3.3-23,9.2c-5.9,5.9-9.2,13.8-9.2,23s3.3,17.1,9.2,23c5.7,5.7,13.8,9.2,23,9.2c9.2,0,17.1-3.3,23-9.2
		c5.7-5.7,9.2-13.8,9.2-23s-3.3-17.1-9.2-23C557.4,499.5,549.6,496.2,540.3,496.2z M540.3,576.5c-13.8,0-25.2-4.5-34.4-13.8
		c-9.2-9.2-13.8-20.7-13.8-33.2c0-13.8,4.5-24,13.8-33.2c9.2-9.2,20.7-13.8,34.4-13.8s25.2,4.5,34.4,13.8
		c9.2,9.2,13.8,20.7,13.8,33.2c0,13.8-4.5,24-13.8,33.2C565.7,571.9,554.1,576.5,540.3,576.5z M683.7,575.5v-91.7h15v76.9H740v15
		h-56.3V575.5z M873,496.2c-9.2,0-17.1,3.3-23,9.2c-5.7,5.7-9.2,13.8-9.2,23s3.3,17.1,9.2,23c5.7,5.7,13.8,9.2,23,9.2
		s17.1-3.3,23-9.2c5.7-6.9,9.2-13.8,9.2-23s-3.3-17.1-9.2-23C890.1,499.5,882,496.2,873,496.2z M873,576.5
		c-13.8,0-25.2-4.5-34.4-13.8c-9.2-9.2-13.8-20.7-13.8-33.2c0-13.8,4.5-24,13.8-33.2c9.2-9.2,20.7-13.8,34.4-13.8
		s25.2,4.5,34.4,13.8c9.2,9.2,13.8,20.7,13.8,33.2c0,13.8-4.5,24-13.8,33.2C898.2,571.9,886.7,576.5,873,576.5z M1080.5,531.8h15
		v30.9c-9.2,9.2-20.7,13.8-36.8,13.8c-13.8,0-25.2-4.5-34.4-13.8c-9.2-9.2-13.8-20.7-13.8-33.2s4.5-25.2,13.8-34.4
		c9.2-9.2,20.7-13.8,33.2-13.8s24,3.3,33.2,11.4l-8.1,11.4c-3.3-3.3-6.9-4.5-10.2-6.9c-3.3-1.2-8.1-2.4-12.6-2.4
		c-9.2,0-17.1,3.3-23,9.2c-5.7,5.7-9.2,13.8-9.2,23s3.3,17.1,9.2,23c5.7,5.7,13.8,9.2,21.8,9.2s16.1-2.4,21.8-5.7V531.8
		L1080.5,531.8z M1191.7,484.8h15v91.7h-15V484.8z M1372.8,484.8v15h-48.2v23h43.5v13.8h-43.5v24h50.4v15h-65.3v-91.7h63.1
		L1372.8,484.8L1372.8,484.8z M1486.3,499.7c-3.3,2.4-4.5,4.5-4.5,8.1c0,3.3,1.2,6.9,4.5,8.1c3.3,2.4,9.2,4.5,18.3,6.9
		c9.2,2.4,16.1,5.7,20.7,9.2c4.5,4.5,6.9,10.2,6.9,18.3c0,8.1-3.3,15-9.2,19.5c-5.7,4.5-13.8,6.9-24,6.9c-13.8,0-26.4-4.5-37.8-15
		l9.2-11.4c9.2,8.1,18.3,11.4,28.7,11.4c4.5,0,9.2-1.2,11.4-3.3c3.3-2.4,4.5-4.5,4.5-8.1c0-3.3-1.2-5.7-4.5-8.1
		c-2.4-2.4-8.1-3.3-13.8-5.7c-6.9-1.2-11.4-3.3-15-4.5c-3.5-1.2-6.9-3.3-9.2-5.7c-5.7-4.5-8.1-10.2-8.1-18.3s3.3-15,9.2-19.5
		c5.7-4.5,13.8-6.9,23-6.9c5.7,0,11.4,1.2,17.1,3.3c5.7,2.2,10.2,4.5,15,8.1l-8.1,11.4c-2.4-2.4-6.9-4.5-11.4-5.7
		c-4.5-1.2-9.2-2.4-13.8-2.4C1493.2,496.2,1489.9,497.4,1486.3,499.7z"/>
</g>
</svg>
