<?xml version="1.0" encoding="utf-8"?>
<!-- Generator: Adobe Illustrator 22.1.0, SVG Export Plug-In . SVG Version: 6.00 Build 0)  -->
<svg version="1.1" id="Layer_1" xmlns="http://www.w3.org/2000/svg" xmlns:xlink="http://www.w3.org/1999/xlink" x="0px" y="0px"
	 viewBox="0 0 453 144" style="enable-background:new 0 0 453 144;" xml:space="preserve">
<style type="text/css">
	.st0{fill:#231F20;}
</style>
<g>
	<polygon class="st0" points="207.9,48.2 207.2,48.2 194.7,31.1 194.7,48.2 193.8,48.2 193.8,29 196,29 207.1,44.1 207.1,29
		207.9,29 207.9,48.2 	"/>
	<polygon class="st0" points="240.3,61.5 226.5,40.2 211.3,61.5 208.7,61.5 225.4,38.6 208.7,14 215.6,14 229.3,34 242.4,14
		244.9,14 230.3,35.7 247.3,61.5 240.3,61.5 	"/>
	<path class="st0" d="M260,48.2c-1.1-1.7-1.6-2.6-1.6-2.6c-1,1.6-2.6,2.6-4.8,2.6c-5.1,0-8.1-4.1-8.1-9.4c0-5.3,3-9.8,8.4-9.8
		c3.4,0,5.9,2,6.4,5.5h-0.6c-0.5-3.1-2.8-4.7-5.7-4.7c-3.6,0-5.9,2.2-5.9,9c0,6.9,2.4,8.6,5.7,8.6c2,0,3.9-0.9,4.6-3v-3.9H255v-0.9
		h5.6v8.5H260L260,48.2z"/>
	<polygon class="st0" points="59,130.3 57.2,130.3 25.8,87.5 25.8,129.9 23.8,129.9 23.8,82.4 29.2,82.4 56.9,120 56.9,82.4
		59,82.4 59,130.3 	"/>
	<polygon class="st0" points="75.7,130.1 75.7,82.6 102.8,82.6 102.8,84.8 81.6,84.8 81.6,105.1 100.5,105.1 100.5,107.2
		81.6,107.2 81.6,127.9 102.9,127.9 102.9,130.1 75.7,130.1 	"/>
	<polygon class="st0" points="147.8,130.1 134,108.8 118.8,130.1 116.2,130.1 132.9,107.1 116.2,82.6 123.1,82.6 136.8,102.6
		149.9,82.6 152.4,82.6 137.8,104.3 154.8,130.1 147.8,130.1 	"/>
	<polygon class="st0" points="203.3,84.8 187.4,84.8 187.4,130.1 181.5,130.1 181.5,84.8 165.5,84.8 165.5,82.6 203.3,82.6
		203.3,84.8 	"/>
	<path class="st0" d="M247.8,130.1c-2.5-3.8-3.8-6-4-6.4c-2.4,4.1-6.6,6.4-12,6.4c-12.7,0-20.2-10.1-20.2-23.3
		c0-13.1,7.6-24.2,20.9-24.2c8.5,0,14.7,5,16,13.7h-1.4c-1.3-7.6-6.9-11.7-14.3-11.7c-9,0-14.8,5.4-14.8,22.2
		c0,17.1,6,21.4,14.2,21.4c4.9,0,9.7-2.3,11.4-7.5v-9.6h-8.1v-2.2h13.9v21.2H247.8L247.8,130.1z"/>
	<path class="st0" d="M296.9,113.1V82.6h1.9v29.9c0,12-7.3,17.6-17.1,17.6c-11,0-18.1-5.4-18.1-18.7V82.6h5.8v28.8
		c0,12,5.7,16.2,13.2,16.2C289.7,127.6,296.9,123.6,296.9,113.1L296.9,113.1z"/>
	<polygon class="st0" points="313.8,130.1 313.8,82.6 340.9,82.6 340.9,84.8 319.7,84.8 319.7,105.1 338.5,105.1 338.5,107.2
		319.7,107.2 319.7,127.9 340.9,127.9 340.9,130.1 313.8,130.1 	"/>
	<path class="st0" d="M369.1,84.6c-6.8,0-9.4,3.5-9.4,8.1s2.3,7.4,10.7,10.8c9.4,3.9,13,7.5,13,14.2c0,7.4-7.1,12.4-15.3,12.4
		c-8.4,0-14.4-4.1-15.2-13.1h1.4c1,8,6.5,11.1,13.7,11.1c6.2,0,10.4-3.4,10.4-9c0-5.2-3-7.6-11.2-11c-9.2-3.7-12-7.5-12-13.5
		c0-5.9,4-12.1,14-12.1c7.8,0,12.5,4.4,13.2,12h-1.4C380.1,88,375.8,84.6,369.1,84.6L369.1,84.6z"/>
	<polygon class="st0" points="430.5,84.8 414.6,84.8 414.6,130.1 408.7,130.1 408.7,84.8 392.7,84.8 392.7,82.6 430.5,82.6
		430.5,84.8 	"/>
</g>
</svg>
