<?xml version="1.0" encoding="utf-8"?>
<!-- Generator: Adobe Illustrator 21.0.2, SVG Export Plug-In . SVG Version: 6.00 Build 0)  -->
<svg version="1.1" id="Layer_1" xmlns="http://www.w3.org/2000/svg" xmlns:xlink="http://www.w3.org/1999/xlink" x="0px" y="0px"
	 viewBox="0 0 350 79" style="enable-background:new 0 0 350 79;" xml:space="preserve">
<style type="text/css">
	.st0{fill:#FFFFFF;}
</style>
<title>The Maven Logo</title>
<desc>Created with Sketch.</desc>
<g>
	<path id="Fill-1" class="st0" d="M348.6,67.3c-0.7-0.1-1.6-0.2-2.9-0.2c-2.5-0.1-6.3-0.1-11,0c-9.5,0.1-22.9,0.3-39.1,0.6
		c-32.4,0.7-75.5,1.9-118.7,3.2c-43.2,1.3-86.3,2.7-118.7,3.7c-16.2,0.5-29.7,1-39.1,1.3c-2.4,0.1-4.5,0.1-6.3,0.2
		c-1.8,0-3.4,0.1-4.7,0.2c-0.6,0-1.2,0.1-1.7,0.1c-0.5,0.1-0.9,0.1-1.2,0.2c-0.6,0.2-1,0.6-1,0.6l0,0.8c0,0,0.4,0.4,1,0.6
		c0.3,0.1,0.7,0.1,1.2,0.1c0.5,0,1,0,1.7,0c1.3,0,2.8-0.1,4.7-0.2c1.8-0.1,3.9-0.2,6.3-0.2c9.4-0.3,22.9-0.8,39.1-1.4
		c32.4-1.1,75.5-2.6,118.7-4.1c43.2-1.4,86.3-2.8,118.7-3.6c16.2-0.4,29.7-0.7,39.1-0.8c4.7,0,8.4,0,10.9,0c1.3,0,2.2,0,2.9,0
		c0.6,0,1,0,1,0l0.1-0.8C349.6,67.4,349.3,67.4,348.6,67.3"/>
	<path id="Fill-2" class="st0" d="M289.3,50.4c0.5-0.7,1.1-1.2,1.7-1.7c0.7-0.5,1.4-0.8,2.2-1c0.8-0.2,2.2-0.7,3.1,0
		c0.6,1-2,2.6-3.4,3.3c-1.4,0.7-1.5,0.8-4.6,1.4C288.5,51.7,288.8,51,289.3,50.4L289.3,50.4z M130.4,65.1c0.4,0.1,0.8,0,1.4-0.2
		c0.5-0.2,1.1-0.7,1.6-1.3c1.6-1.8,3-4,4.3-6.6c1.3-2.6,2.3-5.2,3-7.9c0.8-1.1,1.5-2.3,2.3-3.4c0.8-1.1,1.5-2.2,2.4-3.4
		c5.2-7.3,11-13.9,17.3-19.9c2.7-2.6,5.6-5,8.6-7.2c4.8-3.6,5.3-3.9,8.5-5.4c1.1-0.5,2.5-1,3.4-1.3c1.2-0.4,1.8-0.5,2.6-0.5
		c0.8,0,1.5,0.3,2,1c0.4,0.5,0.7,1,0.6,1.9c-0.1,0.9-0.2,1.8-0.6,2.7c-0.3,0.9-0.7,1.8-1.1,2.6c-0.4,0.8-0.7,1.5-0.9,1.9
		c-1.1,2.1-2.2,4.1-3.5,6c-1.3,1.9-2.5,3.9-3.7,5.8c-2.1,3.4-4.2,6.7-6.3,10.1c-2.1,3.4-4.2,6.7-6.4,10.1l-3.6,5.7
		c-0.3,0.5-0.8,1.2-1.4,2c-0.6,0.8-0.9,1.6-0.9,2.3c0.1,0.7,0.3,1.2,0.8,1.5c0.5,0.3,1,0.3,1.4,0c0.5-0.3,0.8-0.8,1.1-1.4
		c0.3-0.6,0.6-1.1,0.9-1.5c4.3-6.1,8.9-12.1,13.8-17.8c2.4-2.8,4.8-5.4,7.3-8c2.5-2.6,5.1-5,7.8-7.4c1.3-1.1,2.7-2.2,4.1-3.3
		c1.4-1,2.9-2,4.4-3c0.8-0.5,1.7-1,2.6-1.4c0.9-0.4,1.8-0.7,2.8-1c-0.9,1.3-2.1,3-3.6,5c-1.5,2-3,4-4.4,5.9c-1.5,2-2.8,3.7-3.9,5.2
		c-1.1,1.5-1.8,2.4-2.1,2.8c-1.3,2-2.5,3.9-3.8,6c-1.2,2-2.2,4.2-3.1,6.6c-0.4,0.8-0.7,1.7-1,2.7c-0.3,1-0.5,2-0.5,3
		c-0.1,1,0,2,0.3,2.9c0.3,0.9,0.7,1.8,1.4,2.4c0.8,0.7,1.6,1.2,2.6,1.4c1,0.2,1.9,0.2,2.9,0.1c1-0.1,2-0.4,2.9-0.7
		c1-0.3,1.9-0.6,2.7-1c1.5-0.7,3.1-1.4,4.6-2.1c1.5-0.7,3.1-1.4,4.6-2.2c1.3-0.7,2.8-1.3,4.1-2.1c1.5-0.9,2.9-1.4,4.3-2.2
		c0.9-0.5,1.8-0.9,2.5-1.2c1-0.4,1.7-0.7,2.1-0.8c-0.8,0.4-1.7,1.1-2.6,2c-0.9,0.9-1.8,1.8-2.6,2.9c-0.8,1-1.4,2-1.9,3
		c-0.5,1-0.8,1.8-0.8,2.4c0.1,1.2,0.5,2.1,1.4,2.6c0.9,0.6,1.9,0.8,3,0.8c1.3-0.1,2.5-0.5,3.6-1.2c1.2-0.7,2.3-1.3,3.3-1.9l2.5-1.5
		c-0.3,0.9-0.3,1.7-0.1,2.5c0.2,0.8,0.8,1.4,1.9,1.8c0.8,0.3,1.7,0.4,2.7,0.3c1-0.1,1.9-0.3,2.9-0.7c0.9-0.3,1.8-0.7,2.7-1.1
		c0.9-0.4,1.7-0.8,2.4-1.1c1.1-0.5,2.2-1,3.3-1.5c1.1-0.5,9.7-4.8,12-5.8c0.9-0.4,2.1-0.8,2.9-1.1c0.8-0.3,1.7-0.6,2.6-0.9
		c-1.6,2.6-2.7,5.1-3.4,7.6c-0.4,1.4-0.4,2.5,0.1,3.1c0.5,0.6,1.2,0.9,2.1,1c0.9,0.1,1.8,0,2.8-0.3c1-0.3,1.9-0.7,2.5-1.1
		c0.9-0.5,1.8-1,2.7-1.6c0.9-0.6,1.8-1.3,2.7-2c0.8,0.7,1.8,1.1,3,1.1c1.3,0.1,2.5,0.1,3.8-0.1c1.3-0.2,2.6-0.5,3.8-0.8
		c0.4-0.1,5.1-1.2,6.3-1.8c0.1,0.7,0.3,1.5,0.5,1.9c0.5,1.3,1.3,2.4,2.3,3.1c1,0.8,2,1.3,3.2,1.7c1.1,0.3,2.4,0.5,3.7,0.4
		c1.3-0.1,2.5-0.3,3.8-0.7c2.7-1.1,5.4-2.4,8.2-3.8c0,0,8.4-4.6,9.2-5c1.3-0.7,5.2-2.3,5.6-2c0.2,0.1-0.1,0.9-0.3,1.3
		c-0.1,0.4-0.6,1.7-0.9,2.3c-0.3,0.6-0.6,1.1-0.8,1.5c-1.1,1.4-3.6,3.2-3.8,3.7c-0.1,0.4-0.1,0.8,0,1.1c0.1,0.3,0.3,0.5,0.6,0.6
		c0.3,0.1,0.6,0.2,0.9,0.2c0.3,0,0.6-0.2,0.9-0.4c1.3-1.3,5.3-4.9,7-5.8c1.7-1,3.4-1.9,5-2.6c1.3-0.7,2.7-1.3,4.2-1.9
		c1.5-0.6,4.3-1.6,4.6-1.2c0.3,0.2-0.7,1.6-1.5,2.5c-0.8,0.9-1.3,1.5-1.7,1.8c-0.3,0.3-0.7,0.7-1.1,1.1c-0.4,0.4-0.8,0.8-1.2,1.2
		c-0.4,0.4-0.7,0.9-1,1.3c-0.3,0.4-0.4,0.9-0.4,1.5c0,1.1,0.4,1.8,1.1,2c0.7,0.3,1.6,0.3,2.5,0.1c1-0.2,2-0.5,2.9-0.9
		c1-0.4,1.7-0.7,2.1-1c0.8-0.4,1.5-0.8,2.3-1.1c0.7-0.3,1.5-0.7,2.3-1.2c0.6-0.3,1.2-0.5,1.8-0.8c0.6-0.3,1.1-0.5,1.6-0.8
		c0.4-0.3,0.7-0.7,0.7-1.2c0-0.5-0.3-0.8-0.8-0.8c-0.2,0-0.5,0.1-0.9,0.3c-0.4,0.2-0.7,0.3-1.1,0.5c-0.4,0.2-0.8,0.4-1.1,0.6
		c-0.4,0.2-0.7,0.4-0.9,0.5l-3.4,1.5c-0.3,0.1-0.7,0.3-1.2,0.5c-0.5,0.2-1.1,0.4-1.7,0.6c-0.6,0.2-1.2,0.3-1.8,0.5
		c-0.6,0.1-1.1,0.1-1.5,0c0.1-0.3,0.2-0.6,0.5-1c0.3-0.4,0.5-0.7,0.8-1.1c0.3-0.4,0.6-0.7,0.9-1c0.3-0.3,0.5-0.5,0.6-0.7
		c0.6-0.7,1.2-1.4,1.8-2c0.6-0.6,1.1-1.3,1.6-2.1c0.4-0.7,0.7-1.3,0.7-1.9c0-0.6-0.2-1.1-0.5-1.4c-0.3-0.4-0.7-0.6-1.3-0.8
		c-0.6-0.1-1.2-0.1-1.9,0c-2,0.6-3.9,1.4-5.8,2.4c-1.9,1.1-3.7,2.1-5.5,3c-0.7,0.3-1.5,0.7-2.2,1c-0.7,0.3-1.5,0.7-2.2,1.2l1-2.3
		c0.2-0.4,0.4-0.9,0.8-1.5c0.4-0.5,0.4-1.1,0.2-1.6c-0.3-0.7-1.2-0.9-2.5-0.7c-1.3,0.3-2.8,0.8-4.4,1.5c-1.6,0.7-3.1,1.5-4.6,2.3
		c-1.5,0.8-7.1,3.9-8.5,4.5c-1.4,0.6-2.8,1.2-4.2,1.8c-1.1,0.5-2.2,1-3.4,1.2c-1.3,0.2-2.7,0.3-3.9,0.1c-1.2-0.2-2.4-0.8-3.3-1.5
		c-1-0.8-1.6-2.1-2-3.5l0.4,0c1.4,0,3.5-0.6,4.8-1.1c3.7-1.7,5.3-3.6,5.7-4.1c0.5-0.6,0.8-1.1,0.9-1.7c0.2-0.6,0-1.1-0.5-1.5
		c-0.7-0.7-1.7-1.1-2.8-1.1c-1.2,0-2.2,0.1-3,0.4c-1.6,0.5-3.2,1.3-4.5,2.4c-1.4,1.1-2.8,3.7-3.4,5.2c-0.3,0.2-0.8,0.3-2.4,0.8
		c-0.6,0.2-2.1,0.7-2.9,1c-0.7,0.2-1.5,0.3-2.4,0.6c-0.8,0.2-1.7,0.4-2.6,0.6c-0.9,0.2-1.7,0.2-2.6,0.2c-0.8,0-1.6-0.2-2.4-0.5
		c0.8-0.7,1.6-1.4,2.3-2.2c0.7-0.8,1.3-1.6,1.8-2.4c0.4-0.7,0.6-1.4,0.7-2.3c0.1-0.8-0.4-1.3-1.3-1.6c-0.8-0.3-1.6-0.1-2.4,0.4
		c-0.8,0.5-1.4,1-1.9,1.5c-0.9,0.9-1.5,1.9-1.9,2.9c-0.4,1.1-0.5,2.1-0.4,3.1l-0.8,0.7c-0.3,0.2-0.9,0.6-1.9,1.2
		c-1,0.6-2,1.1-3.1,1.6c-1,0.4-1.9,0.6-2.5,0.5c-0.7-0.1-0.8-0.8-0.3-2c0.2-0.4,0.4-0.9,0.6-1.3c0.2-0.4,0.4-0.8,0.7-1.2
		c0.5-0.8,1-1.6,1.6-2.4c0.5-0.8,1.1-1.5,1.8-2.2c0.3-0.2,0.5-0.4,0.8-0.8c0.3-0.3,0.5-0.6,0.7-0.9c0.2-0.3,0.3-0.6,0.2-0.9
		c-0.1-0.3-0.3-0.6-0.8-0.9c-0.5-0.3-1.1-0.3-1.6,0c-0.6,0.3-1.1,0.6-1.6,0.8c-2.3,1-4.6,2-7,3.1c-2.3,1.1-11.9,5.8-13.3,6.4
		c-1.4,0.6-2.8,1.1-4.2,1.6c-1.4,0.4-2.8,0.8-4.1,1c-1.3,0.3-2.4,0.3-3.3,0.2c-0.3-0.1-0.5-0.2-0.7-0.4c-0.1-0.2-0.1-0.5,0.2-1
		c0.2-0.5,0.4-0.9,0.7-1.2c0.3-0.3,0.6-0.6,0.9-0.9c0.3-0.3,0.5-0.7,0.7-1.1c0.3-0.8,0-1.5-0.6-1.9c-0.7-0.5-1.3-0.4-1.8,0.2
		c-1.1,1.3-2.6,2.4-4.4,3.6c-0.3,0.2-0.8,0.5-1.5,0.9c-0.8,0.4-1.6,0.8-2.4,1.2c-0.9,0.4-1.7,0.7-2.6,0.8c-0.8,0.2-1.5,0.1-1.8-0.2
		c-0.4-0.4-0.4-1,0-1.8c0.4-0.8,1-1.7,1.8-2.6c0.8-0.9,1.5-1.8,2.3-2.5c0.8-0.8,1.3-1.3,1.6-1.6c0.8-0.5,1.4-0.9,2-1.3
		c0.6-0.3,1.3-0.6,2.2-0.9l4.2-0.5c0.7-0.1,1.3-0.5,1.7-1c0.5-0.6,0.3-1.2-0.4-1.9c-0.5-0.3-1.3-0.4-2.4-0.3
		c-1.1,0.1-2.3,0.3-3.5,0.7c-1.3,0.3-2.4,0.7-3.6,1c-1.1,0.4-1.9,0.7-2.4,0.8c-0.8,0.3-1.8,0.7-3.1,1.2c-0.8,0.3-1.6,0.6-2.4,1
		c0,0,0,0,0,0l-0.1,0c-0.5,0.2-0.9,0.4-1.4,0.6c-1,0.4-2,0.9-3,1.4l-0.1,0c-0.1,0-0.1,0.1-0.2,0.1c-0.2,0.1-0.3,0.2-0.5,0.2
		c-0.2,0.1-0.4,0.2-0.6,0.3c-1,0.5-2.1,1-3.1,1.6c-1.5,0.7-3,1.4-4.6,1.9c-1.5,0.5-3.1,1-4.8,1.5c-1.7,0.4-3.3,0.6-4.9,0.5
		c-0.8-0.1-1.4-0.3-1.8-0.8c-0.4-0.4-0.7-1-0.8-1.6c-0.1-0.6-0.1-1.3-0.1-2c0.1-0.7,0.2-1.4,0.4-2.2c0.7-3,1.8-5.9,3.2-8.6
		c1.5-2.7,3.1-5.3,5-7.8c1.8-2.5,3.8-4.8,5.8-7.1c2-2.3,4-4.6,5.8-6.8c0.6-0.7,1.3-1.5,2.1-2.4c0.8-0.9,1.4-2,1.5-3
		c0.1-0.8,0-1.4-0.4-1.7c-0.4-0.3-0.9-0.5-1.4-0.5c-0.6,0-1.2,0.1-1.8,0.3c-0.6,0.2-1.1,0.3-1.5,0.5c-3,1.1-5.9,2.7-8.6,5
		c-2.7,2.3-5.3,4.5-7.8,6.7c-3,2.8-5.9,5.6-8.7,8.5c-2.8,2.9-5.6,6-8.3,9.2c0.6-1.2,1.3-2.4,2.1-3.6c0.7-1.2,1.5-2.4,2.2-3.6
		c1.9-3,3.9-6,6-8.8c2.1-2.9,4-5.9,5.7-9.2c0.7-1.3,1.3-2.8,1.8-4.2c0.5-1.5,0.7-3,0.4-4.6c-0.3-1.7-1-2.8-2.2-3.5
		c-1.2-0.6-2.5-1-3.8-0.8c-3.4,0.5-3.5,0.8-7.1,2.6c-2.9,1.5-5.4,3.5-7.9,5.3c-2.7,2.1-5.4,4.3-7.8,6.8c-2.5,2.4-4.9,4.9-7.3,7.5
		c-2.5,2.6-4.8,5.3-7.1,8.1c-2.3,2.8-4.5,5.7-6.6,8.6c0-1.7-0.2-3.3-0.6-5c-0.2-0.5-0.5-0.9-1-1.2c-0.5-0.2-1-0.2-1.4,0.3
		c-0.4,0.3-0.5,0.7-0.6,1.2c0,0.4,0,0.9,0,1.4c0.1,0.5,0.2,1,0.3,1.5c0.1,0.5,0.2,0.9,0.2,1.2c0,2.5-0.4,4.8-1.1,7
		c-1.3,2-2.6,3.9-3.8,6c-1.3,2-2.4,4.2-3.3,6.5c-0.4,0.7-0.5,1.3-0.4,1.7C129.8,64.8,130.1,65,130.4,65.1L130.4,65.1z"/>
	<path id="Fill-3" class="st0" d="M14.1,22.5c3.5-1.1,7-2.2,10.5-3.2c3.5-1,7-1.9,10.6-2.8c2.1-0.5,4.2-0.9,6.2-1.3
		c2.1-0.4,4.2-0.8,6.3-1.1l-3.3,3.5c-2.5,2.7-4.9,5.6-7.2,8.5c-2.3,2.9-4.6,6-6.7,9.1c-2.1,2.9-4,6-5.8,9.2
		c-1.8,3.2-3.3,6.5-4.6,9.9c-0.5,1.6-1,3.3-1.3,5.1c-0.4,1.8-0.2,3.5,0.3,5.1c0.1,0.3,0.4,0.8,0.7,1.3c0.4,0.6,0.8,1,1.2,1.4
		c0.5,0.4,0.9,0.5,1.4,0.5c0.5,0,0.8-0.4,1.2-1.2c0.3-0.7,0.1-1.2-0.4-1.8c-0.5-0.5-0.9-1.1-1.2-1.8c-0.3-0.7-0.4-1.5-0.3-2.3
		c0-0.8,0.1-1.6,0.2-2.4c0.3-1.6,0.8-3.3,1.4-4.9c0.6-1.6,1.3-3.2,2.1-4.7c1.5-3.4,3.3-6.6,5.2-9.7c2-3.1,4.1-6.1,6.3-9
		c2.3-2.9,4.6-5.8,7-8.5c2.4-2.7,4.9-5.3,7.6-7.9c1-0.1,2.1-0.2,3-0.3c1-0.1,2-0.2,3.1-0.2c1.8-0.1,3.6-0.2,5.4-0.2
		c1.8,0,3.6,0.1,5.4,0.2c1.5,0.1,3,0.4,4.5,0.7c1.5,0.4,2.9,0.5,4.4,0.5c0.5,0.1,1,0.1,1.4-0.2c0.4-0.3,0.7-0.7,0.7-1.2
		c0.1-0.8-0.1-1.3-0.6-1.6c-0.6-0.3-1.1-0.5-1.7-0.6c-1.8-0.3-3.5-0.5-5.3-0.6c-1.8-0.1-3.6-0.1-5.3-0.1c-2,0-4,0-6,0.1
		c-2,0.1-3.9,0.3-5.8,0.5c0.9-0.7,1.8-1.4,2.8-2.2c0.9-0.7,1.9-1.4,2.9-2.1c0.5-0.3,1.1-0.7,1.9-1.1c0.7-0.4,1.5-0.8,2.3-1.2
		c0.8-0.4,1.6-0.6,2.4-0.7c0.8-0.1,1.5,0,2.2,0.3C69.8,4,70.3,4,70.7,3.8c0.4-0.3,0.7-0.6,0.8-1c0.1-0.4,0.1-0.9-0.1-1.3
		c-0.2-0.5-0.6-0.8-1.3-1c-1.6-0.5-3.2-0.5-4.8,0.1c-1.6,0.6-3,1.4-4.3,2.2c-1.9,1.2-3.7,2.5-5.4,3.9c-1.7,1.4-3.4,2.9-5.1,4.5
		c-1,0.1-2,0.3-2.9,0.4c-1,0.2-2,0.3-2.9,0.5c-7.3,1.3-14.5,3-21.7,5c-7.1,2-14.3,4-21.4,5.9c-0.5,0.2-0.8,0.5-1,1
		c-0.2,0.5-0.3,0.9-0.1,1.4c0.3,0.7,0.8,1.1,1.4,1.1c0.6,0,1.2-0.1,1.8-0.3c1.7-0.7,3.4-1.4,5.1-2C10.6,23.7,12.3,23.1,14.1,22.5"/>
	<path id="Fill-4" class="st0" d="M79.6,56c0.1-0.6,0.6-2.2,1.8-3.8c1.1-1.4,1.5-1.7,2.3-2.1c0.9-0.4,1.5-0.6,2.6-0.5
		c0.5,0.1,1.2,0.1,1.2,0.8c0,0-0.1,1.4-3.8,3.7c-0.8,0.5-2.8,1.8-4,2.1C79.6,56.3,79.6,56.2,79.6,56L79.6,56z M58.8,38
		C58.8,38,58.8,38,58.8,38c0.8-1.3,1.7-2.5,2.7-3.7c1-1.2,2.2-2.2,3.5-2.9c-0.5,1.1-1.1,2.1-1.9,3.1c-0.8,0.9-1.5,1.8-2.3,2.6
		c-0.6,0.7-1.3,1.4-1.9,2.1c-0.7,0.7-1.3,1.4-1.9,2.1L58.8,38L58.8,38z M77.2,57.4c0,0.1,0,0.1-0.1,0.1c-0.9,0.5-7.7,3.8-10.9,4.9
		c-1.8,0.6-3.3,1.3-3.9,0.6c-0.3-0.3,0.2-1.7,0.6-2.5c0.4-0.8,0.8-1.6,1.4-2.4c0.6-0.8,1.1-1.5,1.6-2.3c0.5-0.7,1-1.5,1.3-2.2
		c0.4-0.9,0.5-1.7,0.2-2.5c-0.3-0.8-0.9-1.4-1.8-1.6c-0.9-0.2-1.7-0.1-2.6,0.1c-0.9,0.3-1.6,0.6-2.2,1c-1.9,0.9-3.8,1.9-5.7,3
		c-1.7,0.9-3.4,1.9-5,2.9c-0.2,0.1-0.3-0.1-0.2-0.2c0.5-0.9,0.9-1.7,1.3-2.6c0.5-1,1-2.1,1.5-3.1c0.3-0.7,0.5-1.3,0.8-2
		c0.3-0.6,0.6-1.3,0.9-2c0,0,0,0,0-0.1c1.3-1.1,2.6-2.3,3.8-3.6c1.3-1.3,2.5-2.5,3.7-3.8c0.5-0.6,1.1-1.3,1.8-1.9
		c0.7-0.7,1.4-1.4,2-2.1c0.7-0.8,1.2-1.5,1.8-2.3c0.5-0.8,0.9-1.6,1.2-2.5c0.3-1.1,0.2-1.8-0.2-2.2c-0.4-0.4-1-0.5-1.7-0.5
		c-0.7,0-1.4,0.2-2.2,0.5c-0.8,0.3-1.3,0.6-1.7,0.9c0,0,0,0,0,0c-1.6,1.2-3,2.8-4.1,4.7c-1.1,1.9-2.1,3.7-3,5.5l-2.9,6c0,0,0,0,0,0
		c-2.4,2.6-5.4,5.1-8.8,7.4c-3.4,2.3-7,4.4-10.7,6.4c-0.4,0.2-0.5,0.5-0.5,0.9c0,0.4,0.2,0.7,0.5,1c0.3,0.2,0.6,0.3,1,0.1
		c0.3-0.2,0.6-0.3,0.9-0.5c0,0,0,0,0,0c1-0.6,2-1.2,2.9-1.8c1-0.6,1.9-1.2,2.9-2c1.6-1.1,3.2-2.2,4.8-3.4c1.4-1,2.7-2.1,4.1-3.2
		c0.1-0.1,0.4,0,0.3,0.2c-1,2-2.1,3.9-3.3,5.7c-1.4,2.1-2.9,4.1-4.5,6c-0.3,0.4-0.4,0.8-0.5,1.2c0,0.4,0.2,0.8,0.7,1.2
		c0.5,0.3,0.9,0.4,1.3,0.3c0.4-0.1,0.7-0.4,1-0.7c0.3-0.3,0.9-0.8,1.6-1.6c0.7-0.7,2-1.8,3.9-3.3c1.2-0.8,2.3-1.6,3.5-2.4
		c1.2-0.8,6.3-3.3,6.9-3.5c1.4-0.6,2-0.8,2.8-0.8c0.1,0,0.5,0.1,0.5,0.3c0.2,1.1-0.5,1.8-1,2.7c-0.6,1-1.2,1.9-1.8,2.8
		c-0.3,0.4-0.6,0.9-1,1.5c-0.4,0.6-0.7,1.1-0.9,1.7c-0.2,0.6-0.4,1.2-0.4,1.8c0,0.6,0.2,1.3,0.6,1.8c0.5,0.7,1.2,0.8,2.1,0.9
		c1.6,0.1,13.1-5.4,14.9-6.3c0.1,0,0.2,0,0.2,0.1c0.2,0.6,1,2.5,1.8,3.2c0.9,0.8,1.9,1.4,2.9,1.8c1.1,0.4,2.2,0.6,3.5,0.6
		c1.2,0,2.4-0.1,3.6-0.4c0,0,0,0,0,0c2.7-0.9,5.3-1.9,8-3.1l4.4-2.2c0.4-0.2,0.9-0.4,1.4-0.6c0.5-0.2,0.9-0.6,1.2-1.1
		c0.3-0.6,0.3-0.9-0.2-1.2c-0.5-0.2-0.9-0.3-1.3-0.1c-0.5,0.3-1.1,0.6-1.7,0.9c-0.6,0.3-1.2,0.6-1.8,1c-1.3,0.7-3.5,1.8-4.8,2.3
		c-1.4,0.5-9.2,4-13.5,0.4c-1.3-1.1-1.4-2.6-1.3-2.7c0.2-0.1,0.3-0.2,0.5-0.2c6.9-3,10.7-7,10.3-8.9c-0.1-0.5-0.3-1.2-1.1-1.6
		c-1.4-0.8-4.2-1.6-8,1.4c-1.3,1-3,3.9-3.5,5.9C77.4,55.8,77.3,57,77.2,57.4L77.2,57.4z"/>
</g>
<g>
	<path id="Fill-1_1_" class="st0" d="M348.6,67.3c-0.7-0.1-1.6-0.2-2.9-0.2c-2.5-0.1-6.3-0.1-11,0c-9.5,0.1-22.9,0.3-39.1,0.6
		c-32.4,0.7-75.5,1.9-118.7,3.2c-43.2,1.3-86.3,2.7-118.7,3.7c-16.2,0.5-29.7,1-39.1,1.3c-2.4,0.1-4.5,0.1-6.3,0.2
		c-1.8,0-3.4,0.1-4.7,0.2c-0.6,0-1.2,0.1-1.7,0.1c-0.5,0.1-0.9,0.1-1.2,0.2c-0.6,0.2-1,0.6-1,0.6l0,0.8c0,0,0.4,0.4,1,0.6
		c0.3,0.1,0.7,0.1,1.2,0.1c0.5,0,1,0,1.7,0c1.3,0,2.8-0.1,4.7-0.2c1.8-0.1,3.9-0.2,6.3-0.2c9.4-0.3,22.9-0.8,39.1-1.4
		c32.4-1.1,75.5-2.6,118.7-4.1c43.2-1.4,86.3-2.8,118.7-3.6c16.2-0.4,29.7-0.7,39.1-0.8c4.7,0,8.4,0,10.9,0c1.3,0,2.2,0,2.9,0
		c0.6,0,1,0,1,0l0.1-0.8C349.6,67.4,349.3,67.4,348.6,67.3"/>
	<path id="Fill-2_1_" class="st0" d="M289.3,50.4c0.5-0.7,1.1-1.2,1.7-1.7c0.7-0.5,1.4-0.8,2.2-1c0.8-0.2,2.2-0.7,3.1,0
		c0.6,1-2,2.6-3.4,3.3c-1.4,0.7-1.5,0.8-4.6,1.4C288.5,51.7,288.8,51,289.3,50.4L289.3,50.4z M130.4,65.1c0.4,0.1,0.8,0,1.4-0.2
		c0.5-0.2,1.1-0.7,1.6-1.3c1.6-1.8,3-4,4.3-6.6c1.3-2.6,2.3-5.2,3-7.9c0.8-1.1,1.5-2.3,2.3-3.4c0.8-1.1,1.5-2.2,2.4-3.4
		c5.2-7.3,11-13.9,17.3-19.9c2.7-2.6,5.6-5,8.6-7.2c4.8-3.6,5.3-3.9,8.5-5.4c1.1-0.5,2.5-1,3.4-1.3c1.2-0.4,1.8-0.5,2.6-0.5
		c0.8,0,1.5,0.3,2,1c0.4,0.5,0.7,1,0.6,1.9c-0.1,0.9-0.2,1.8-0.6,2.7c-0.3,0.9-0.7,1.8-1.1,2.6c-0.4,0.8-0.7,1.5-0.9,1.9
		c-1.1,2.1-2.2,4.1-3.5,6c-1.3,1.9-2.5,3.9-3.7,5.8c-2.1,3.4-4.2,6.7-6.3,10.1c-2.1,3.4-4.2,6.7-6.4,10.1l-3.6,5.7
		c-0.3,0.5-0.8,1.2-1.4,2c-0.6,0.8-0.9,1.6-0.9,2.3c0.1,0.7,0.3,1.2,0.8,1.5c0.5,0.3,1,0.3,1.4,0c0.5-0.3,0.8-0.8,1.1-1.4
		c0.3-0.6,0.6-1.1,0.9-1.5c4.3-6.1,8.9-12.1,13.8-17.8c2.4-2.8,4.8-5.4,7.3-8c2.5-2.6,5.1-5,7.8-7.4c1.3-1.1,2.7-2.2,4.1-3.3
		c1.4-1,2.9-2,4.4-3c0.8-0.5,1.7-1,2.6-1.4c0.9-0.4,1.8-0.7,2.8-1c-0.9,1.3-2.1,3-3.6,5c-1.5,2-3,4-4.4,5.9c-1.5,2-2.8,3.7-3.9,5.2
		c-1.1,1.5-1.8,2.4-2.1,2.8c-1.3,2-2.5,3.9-3.8,6c-1.2,2-2.2,4.2-3.1,6.6c-0.4,0.8-0.7,1.7-1,2.7c-0.3,1-0.5,2-0.5,3
		c-0.1,1,0,2,0.3,2.9c0.3,0.9,0.7,1.8,1.4,2.4c0.8,0.7,1.6,1.2,2.6,1.4c1,0.2,1.9,0.2,2.9,0.1c1-0.1,2-0.4,2.9-0.7
		c1-0.3,1.9-0.6,2.7-1c1.5-0.7,3.1-1.4,4.6-2.1c1.5-0.7,3.1-1.4,4.6-2.2c1.3-0.7,2.8-1.3,4.1-2.1c1.5-0.9,2.9-1.4,4.3-2.2
		c0.9-0.5,1.8-0.9,2.5-1.2c1-0.4,1.7-0.7,2.1-0.8c-0.8,0.4-1.7,1.1-2.6,2c-0.9,0.9-1.8,1.8-2.6,2.9c-0.8,1-1.4,2-1.9,3
		c-0.5,1-0.8,1.8-0.8,2.4c0.1,1.2,0.5,2.1,1.4,2.6c0.9,0.6,1.9,0.8,3,0.8c1.3-0.1,2.5-0.5,3.6-1.2c1.2-0.7,2.3-1.3,3.3-1.9l2.5-1.5
		c-0.3,0.9-0.3,1.7-0.1,2.5c0.2,0.8,0.8,1.4,1.9,1.8c0.8,0.3,1.7,0.4,2.7,0.3c1-0.1,1.9-0.3,2.9-0.7c0.9-0.3,1.8-0.7,2.7-1.1
		c0.9-0.4,1.7-0.8,2.4-1.1c1.1-0.5,2.2-1,3.3-1.5c1.1-0.5,9.7-4.8,12-5.8c0.9-0.4,2.1-0.8,2.9-1.1c0.8-0.3,1.7-0.6,2.6-0.9
		c-1.6,2.6-2.7,5.1-3.4,7.6c-0.4,1.4-0.4,2.5,0.1,3.1c0.5,0.6,1.2,0.9,2.1,1c0.9,0.1,1.8,0,2.8-0.3c1-0.3,1.9-0.7,2.5-1.1
		c0.9-0.5,1.8-1,2.7-1.6c0.9-0.6,1.8-1.3,2.7-2c0.8,0.7,1.8,1.1,3,1.1c1.3,0.1,2.5,0.1,3.8-0.1c1.3-0.2,2.6-0.5,3.8-0.8
		c0.4-0.1,5.1-1.2,6.3-1.8c0.1,0.7,0.3,1.5,0.5,1.9c0.5,1.3,1.3,2.4,2.3,3.1c1,0.8,2,1.3,3.2,1.7c1.1,0.3,2.4,0.5,3.7,0.4
		c1.3-0.1,2.5-0.3,3.8-0.7c2.7-1.1,5.4-2.4,8.2-3.8c0,0,8.4-4.6,9.2-5c1.3-0.7,5.2-2.3,5.6-2c0.2,0.1-0.1,0.9-0.3,1.3
		c-0.1,0.4-0.6,1.7-0.9,2.3c-0.3,0.6-0.6,1.1-0.8,1.5c-1.1,1.4-3.6,3.2-3.8,3.7c-0.1,0.4-0.1,0.8,0,1.1c0.1,0.3,0.3,0.5,0.6,0.6
		c0.3,0.1,0.6,0.2,0.9,0.2c0.3,0,0.6-0.2,0.9-0.4c1.3-1.3,5.3-4.9,7-5.8c1.7-1,3.4-1.9,5-2.6c1.3-0.7,2.7-1.3,4.2-1.9
		c1.5-0.6,4.3-1.6,4.6-1.2c0.3,0.2-0.7,1.6-1.5,2.5c-0.8,0.9-1.3,1.5-1.7,1.8c-0.3,0.3-0.7,0.7-1.1,1.1c-0.4,0.4-0.8,0.8-1.2,1.2
		c-0.4,0.4-0.7,0.9-1,1.3c-0.3,0.4-0.4,0.9-0.4,1.5c0,1.1,0.4,1.8,1.1,2c0.7,0.3,1.6,0.3,2.5,0.1c1-0.2,2-0.5,2.9-0.9
		c1-0.4,1.7-0.7,2.1-1c0.8-0.4,1.5-0.8,2.3-1.1c0.7-0.3,1.5-0.7,2.3-1.2c0.6-0.3,1.2-0.5,1.8-0.8c0.6-0.3,1.1-0.5,1.6-0.8
		c0.4-0.3,0.7-0.7,0.7-1.2c0-0.5-0.3-0.8-0.8-0.8c-0.2,0-0.5,0.1-0.9,0.3c-0.4,0.2-0.7,0.3-1.1,0.5c-0.4,0.2-0.8,0.4-1.1,0.6
		c-0.4,0.2-0.7,0.4-0.9,0.5l-3.4,1.5c-0.3,0.1-0.7,0.3-1.2,0.5c-0.5,0.2-1.1,0.4-1.7,0.6c-0.6,0.2-1.2,0.3-1.8,0.5
		c-0.6,0.1-1.1,0.1-1.5,0c0.1-0.3,0.2-0.6,0.5-1c0.3-0.4,0.5-0.7,0.8-1.1c0.3-0.4,0.6-0.7,0.9-1c0.3-0.3,0.5-0.5,0.6-0.7
		c0.6-0.7,1.2-1.4,1.8-2c0.6-0.6,1.1-1.3,1.6-2.1c0.4-0.7,0.7-1.3,0.7-1.9c0-0.6-0.2-1.1-0.5-1.4c-0.3-0.4-0.7-0.6-1.3-0.8
		c-0.6-0.1-1.2-0.1-1.9,0c-2,0.6-3.9,1.4-5.8,2.4c-1.9,1.1-3.7,2.1-5.5,3c-0.7,0.3-1.5,0.7-2.2,1c-0.7,0.3-1.5,0.7-2.2,1.2l1-2.3
		c0.2-0.4,0.4-0.9,0.8-1.5c0.4-0.5,0.4-1.1,0.2-1.6c-0.3-0.7-1.2-0.9-2.5-0.7c-1.3,0.3-2.8,0.8-4.4,1.5c-1.6,0.7-3.1,1.5-4.6,2.3
		c-1.5,0.8-7.1,3.9-8.5,4.5c-1.4,0.6-2.8,1.2-4.2,1.8c-1.1,0.5-2.2,1-3.4,1.2c-1.3,0.2-2.7,0.3-3.9,0.1c-1.2-0.2-2.4-0.8-3.3-1.5
		c-1-0.8-1.6-2.1-2-3.5l0.4,0c1.4,0,3.5-0.6,4.8-1.1c3.7-1.7,5.3-3.6,5.7-4.1c0.5-0.6,0.8-1.1,0.9-1.7c0.2-0.6,0-1.1-0.5-1.5
		c-0.7-0.7-1.7-1.1-2.8-1.1c-1.2,0-2.2,0.1-3,0.4c-1.6,0.5-3.2,1.3-4.5,2.4c-1.4,1.1-2.8,3.7-3.4,5.2c-0.3,0.2-0.8,0.3-2.4,0.8
		c-0.6,0.2-2.1,0.7-2.9,1c-0.7,0.2-1.5,0.3-2.4,0.6c-0.8,0.2-1.7,0.4-2.6,0.6c-0.9,0.2-1.7,0.2-2.6,0.2c-0.8,0-1.6-0.2-2.4-0.5
		c0.8-0.7,1.6-1.4,2.3-2.2c0.7-0.8,1.3-1.6,1.8-2.4c0.4-0.7,0.6-1.4,0.7-2.3c0.1-0.8-0.4-1.3-1.3-1.6c-0.8-0.3-1.6-0.1-2.4,0.4
		c-0.8,0.5-1.4,1-1.9,1.5c-0.9,0.9-1.5,1.9-1.9,2.9c-0.4,1.1-0.5,2.1-0.4,3.1l-0.8,0.7c-0.3,0.2-0.9,0.6-1.9,1.2
		c-1,0.6-2,1.1-3.1,1.6c-1,0.4-1.9,0.6-2.5,0.5c-0.7-0.1-0.8-0.8-0.3-2c0.2-0.4,0.4-0.9,0.6-1.3c0.2-0.4,0.4-0.8,0.7-1.2
		c0.5-0.8,1-1.6,1.6-2.4c0.5-0.8,1.1-1.5,1.8-2.2c0.3-0.2,0.5-0.4,0.8-0.8c0.3-0.3,0.5-0.6,0.7-0.9c0.2-0.3,0.3-0.6,0.2-0.9
		c-0.1-0.3-0.3-0.6-0.8-0.9c-0.5-0.3-1.1-0.3-1.6,0c-0.6,0.3-1.1,0.6-1.6,0.8c-2.3,1-4.6,2-7,3.1c-2.3,1.1-11.9,5.8-13.3,6.4
		c-1.4,0.6-2.8,1.1-4.2,1.6c-1.4,0.4-2.8,0.8-4.1,1c-1.3,0.3-2.4,0.3-3.3,0.2c-0.3-0.1-0.5-0.2-0.7-0.4c-0.1-0.2-0.1-0.5,0.2-1
		c0.2-0.5,0.4-0.9,0.7-1.2c0.3-0.3,0.6-0.6,0.9-0.9c0.3-0.3,0.5-0.7,0.7-1.1c0.3-0.8,0-1.5-0.6-1.9c-0.7-0.5-1.3-0.4-1.8,0.2
		c-1.1,1.3-2.6,2.4-4.4,3.6c-0.3,0.2-0.8,0.5-1.5,0.9c-0.8,0.4-1.6,0.8-2.4,1.2c-0.9,0.4-1.7,0.7-2.6,0.8c-0.8,0.2-1.5,0.1-1.8-0.2
		c-0.4-0.4-0.4-1,0-1.8c0.4-0.8,1-1.7,1.8-2.6c0.8-0.9,1.5-1.8,2.3-2.5c0.8-0.8,1.3-1.3,1.6-1.6c0.8-0.5,1.4-0.9,2-1.3
		c0.6-0.3,1.3-0.6,2.2-0.9l4.2-0.5c0.7-0.1,1.3-0.5,1.7-1c0.5-0.6,0.3-1.2-0.4-1.9c-0.5-0.3-1.3-0.4-2.4-0.3
		c-1.1,0.1-2.3,0.3-3.5,0.7c-1.3,0.3-2.4,0.7-3.6,1c-1.1,0.4-1.9,0.7-2.4,0.8c-0.8,0.3-1.8,0.7-3.1,1.2c-0.8,0.3-1.6,0.6-2.4,1
		c0,0,0,0,0,0l-0.1,0c-0.5,0.2-0.9,0.4-1.4,0.6c-1,0.4-2,0.9-3,1.4l-0.1,0c-0.1,0-0.1,0.1-0.2,0.1c-0.2,0.1-0.3,0.2-0.5,0.2
		c-0.2,0.1-0.4,0.2-0.6,0.3c-1,0.5-2.1,1-3.1,1.6c-1.5,0.7-3,1.4-4.6,1.9c-1.5,0.5-3.1,1-4.8,1.5c-1.7,0.4-3.3,0.6-4.9,0.5
		c-0.8-0.1-1.4-0.3-1.8-0.8c-0.4-0.4-0.7-1-0.8-1.6c-0.1-0.6-0.1-1.3-0.1-2c0.1-0.7,0.2-1.4,0.4-2.2c0.7-3,1.8-5.9,3.2-8.6
		c1.5-2.7,3.1-5.3,5-7.8c1.8-2.5,3.8-4.8,5.8-7.1c2-2.3,4-4.6,5.8-6.8c0.6-0.7,1.3-1.5,2.1-2.4c0.8-0.9,1.4-2,1.5-3
		c0.1-0.8,0-1.4-0.4-1.7c-0.4-0.3-0.9-0.5-1.4-0.5c-0.6,0-1.2,0.1-1.8,0.3c-0.6,0.2-1.1,0.3-1.5,0.5c-3,1.1-5.9,2.7-8.6,5
		c-2.7,2.3-5.3,4.5-7.8,6.7c-3,2.8-5.9,5.6-8.7,8.5c-2.8,2.9-5.6,6-8.3,9.2c0.6-1.2,1.3-2.4,2.1-3.6c0.7-1.2,1.5-2.4,2.2-3.6
		c1.9-3,3.9-6,6-8.8c2.1-2.9,4-5.9,5.7-9.2c0.7-1.3,1.3-2.8,1.8-4.2c0.5-1.5,0.7-3,0.4-4.6c-0.3-1.7-1-2.8-2.2-3.5
		c-1.2-0.6-2.5-1-3.8-0.8c-3.4,0.5-3.5,0.8-7.1,2.6c-2.9,1.5-5.4,3.5-7.9,5.3c-2.7,2.1-5.4,4.3-7.8,6.8c-2.5,2.4-4.9,4.9-7.3,7.5
		c-2.5,2.6-4.8,5.3-7.1,8.1c-2.3,2.8-4.5,5.7-6.6,8.6c0-1.7-0.2-3.3-0.6-5c-0.2-0.5-0.5-0.9-1-1.2c-0.5-0.2-1-0.2-1.4,0.3
		c-0.4,0.3-0.5,0.7-0.6,1.2c0,0.4,0,0.9,0,1.4c0.1,0.5,0.2,1,0.3,1.5c0.1,0.5,0.2,0.9,0.2,1.2c0,2.5-0.4,4.8-1.1,7
		c-1.3,2-2.6,3.9-3.8,6c-1.3,2-2.4,4.2-3.3,6.5c-0.4,0.7-0.5,1.3-0.4,1.7C129.8,64.8,130.1,65,130.4,65.1L130.4,65.1z"/>
	<path id="Fill-3_1_" class="st0" d="M14.1,22.5c3.5-1.1,7-2.2,10.5-3.2c3.5-1,7-1.9,10.6-2.8c2.1-0.5,4.2-0.9,6.2-1.3
		c2.1-0.4,4.2-0.8,6.3-1.1l-3.3,3.5c-2.5,2.7-4.9,5.6-7.2,8.5c-2.3,2.9-4.6,6-6.7,9.1c-2.1,2.9-4,6-5.8,9.2
		c-1.8,3.2-3.3,6.5-4.6,9.9c-0.5,1.6-1,3.3-1.3,5.1c-0.4,1.8-0.2,3.5,0.3,5.1c0.1,0.3,0.4,0.8,0.7,1.3c0.4,0.6,0.8,1,1.2,1.4
		c0.5,0.4,0.9,0.5,1.4,0.5c0.5,0,0.8-0.4,1.2-1.2c0.3-0.7,0.1-1.2-0.4-1.8c-0.5-0.5-0.9-1.1-1.2-1.8c-0.3-0.7-0.4-1.5-0.3-2.3
		c0-0.8,0.1-1.6,0.2-2.4c0.3-1.6,0.8-3.3,1.4-4.9c0.6-1.6,1.3-3.2,2.1-4.7c1.5-3.4,3.3-6.6,5.2-9.7c2-3.1,4.1-6.1,6.3-9
		c2.3-2.9,4.6-5.8,7-8.5c2.4-2.7,4.9-5.3,7.6-7.9c1-0.1,2.1-0.2,3-0.3c1-0.1,2-0.2,3.1-0.2c1.8-0.1,3.6-0.2,5.4-0.2
		c1.8,0,3.6,0.1,5.4,0.2c1.5,0.1,3,0.4,4.5,0.7c1.5,0.4,2.9,0.5,4.4,0.5c0.5,0.1,1,0.1,1.4-0.2c0.4-0.3,0.7-0.7,0.7-1.2
		c0.1-0.8-0.1-1.3-0.6-1.6c-0.6-0.3-1.1-0.5-1.7-0.6c-1.8-0.3-3.5-0.5-5.3-0.6c-1.8-0.1-3.6-0.1-5.3-0.1c-2,0-4,0-6,0.1
		c-2,0.1-3.9,0.3-5.8,0.5c0.9-0.7,1.8-1.4,2.8-2.2c0.9-0.7,1.9-1.4,2.9-2.1c0.5-0.3,1.1-0.7,1.9-1.1c0.7-0.4,1.5-0.8,2.3-1.2
		c0.8-0.4,1.6-0.6,2.4-0.7c0.8-0.1,1.5,0,2.2,0.3C69.8,4,70.3,4,70.7,3.8c0.4-0.3,0.7-0.6,0.8-1c0.1-0.4,0.1-0.9-0.1-1.3
		c-0.2-0.5-0.6-0.8-1.3-1c-1.6-0.5-3.2-0.5-4.8,0.1c-1.6,0.6-3,1.4-4.3,2.2c-1.9,1.2-3.7,2.5-5.4,3.9c-1.7,1.4-3.4,2.9-5.1,4.5
		c-1,0.1-2,0.3-2.9,0.4c-1,0.2-2,0.3-2.9,0.5c-7.3,1.3-14.5,3-21.7,5c-7.1,2-14.3,4-21.4,5.9c-0.5,0.2-0.8,0.5-1,1
		c-0.2,0.5-0.3,0.9-0.1,1.4c0.3,0.7,0.8,1.1,1.4,1.1c0.6,0,1.2-0.1,1.8-0.3c1.7-0.7,3.4-1.4,5.1-2C10.6,23.7,12.3,23.1,14.1,22.5"/>
	<path id="Fill-4_1_" class="st0" d="M79.6,56c0.1-0.6,0.6-2.2,1.8-3.8c1.1-1.4,1.5-1.7,2.3-2.1c0.9-0.4,1.5-0.6,2.6-0.5
		c0.5,0.1,1.2,0.1,1.2,0.8c0,0-0.1,1.4-3.8,3.7c-0.8,0.5-2.8,1.8-4,2.1C79.6,56.3,79.6,56.2,79.6,56L79.6,56z M58.8,38
		C58.8,38,58.8,38,58.8,38c0.8-1.3,1.7-2.5,2.7-3.7c1-1.2,2.2-2.2,3.5-2.9c-0.5,1.1-1.1,2.1-1.9,3.1c-0.8,0.9-1.5,1.8-2.3,2.6
		c-0.6,0.7-1.3,1.4-1.9,2.1c-0.7,0.7-1.3,1.4-1.9,2.1L58.8,38L58.8,38z M77.2,57.4c0,0.1,0,0.1-0.1,0.1c-0.9,0.5-7.7,3.8-10.9,4.9
		c-1.8,0.6-3.3,1.3-3.9,0.6c-0.3-0.3,0.2-1.7,0.6-2.5c0.4-0.8,0.8-1.6,1.4-2.4c0.6-0.8,1.1-1.5,1.6-2.3c0.5-0.7,1-1.5,1.3-2.2
		c0.4-0.9,0.5-1.7,0.2-2.5c-0.3-0.8-0.9-1.4-1.8-1.6c-0.9-0.2-1.7-0.1-2.6,0.1c-0.9,0.3-1.6,0.6-2.2,1c-1.9,0.9-3.8,1.9-5.7,3
		c-1.7,0.9-3.4,1.9-5,2.9c-0.2,0.1-0.3-0.1-0.2-0.2c0.5-0.9,0.9-1.7,1.3-2.6c0.5-1,1-2.1,1.5-3.1c0.3-0.7,0.5-1.3,0.8-2
		c0.3-0.6,0.6-1.3,0.9-2c0,0,0,0,0-0.1c1.3-1.1,2.6-2.3,3.8-3.6c1.3-1.3,2.5-2.5,3.7-3.8c0.5-0.6,1.1-1.3,1.8-1.9
		c0.7-0.7,1.4-1.4,2-2.1c0.7-0.8,1.2-1.5,1.8-2.3c0.5-0.8,0.9-1.6,1.2-2.5c0.3-1.1,0.2-1.8-0.2-2.2c-0.4-0.4-1-0.5-1.7-0.5
		c-0.7,0-1.4,0.2-2.2,0.5c-0.8,0.3-1.3,0.6-1.7,0.9c0,0,0,0,0,0c-1.6,1.2-3,2.8-4.1,4.7c-1.1,1.9-2.1,3.7-3,5.5l-2.9,6c0,0,0,0,0,0
		c-2.4,2.6-5.4,5.1-8.8,7.4c-3.4,2.3-7,4.4-10.7,6.4c-0.4,0.2-0.5,0.5-0.5,0.9c0,0.4,0.2,0.7,0.5,1c0.3,0.2,0.6,0.3,1,0.1
		c0.3-0.2,0.6-0.3,0.9-0.5c0,0,0,0,0,0c1-0.6,2-1.2,2.9-1.8c1-0.6,1.9-1.2,2.9-2c1.6-1.1,3.2-2.2,4.8-3.4c1.4-1,2.7-2.1,4.1-3.2
		c0.1-0.1,0.4,0,0.3,0.2c-1,2-2.1,3.9-3.3,5.7c-1.4,2.1-2.9,4.1-4.5,6c-0.3,0.4-0.4,0.8-0.5,1.2c0,0.4,0.2,0.8,0.7,1.2
		c0.5,0.3,0.9,0.4,1.3,0.3c0.4-0.1,0.7-0.4,1-0.7c0.3-0.3,0.9-0.8,1.6-1.6c0.7-0.7,2-1.8,3.9-3.3c1.2-0.8,2.3-1.6,3.5-2.4
		c1.2-0.8,6.3-3.3,6.9-3.5c1.4-0.6,2-0.8,2.8-0.8c0.1,0,0.5,0.1,0.5,0.3c0.2,1.1-0.5,1.8-1,2.7c-0.6,1-1.2,1.9-1.8,2.8
		c-0.3,0.4-0.6,0.9-1,1.5c-0.4,0.6-0.7,1.1-0.9,1.7c-0.2,0.6-0.4,1.2-0.4,1.8c0,0.6,0.2,1.3,0.6,1.8c0.5,0.7,1.2,0.8,2.1,0.9
		c1.6,0.1,13.1-5.4,14.9-6.3c0.1,0,0.2,0,0.2,0.1c0.2,0.6,1,2.5,1.8,3.2c0.9,0.8,1.9,1.4,2.9,1.8c1.1,0.4,2.2,0.6,3.5,0.6
		c1.2,0,2.4-0.1,3.6-0.4c0,0,0,0,0,0c2.7-0.9,5.3-1.9,8-3.1l4.4-2.2c0.4-0.2,0.9-0.4,1.4-0.6c0.5-0.2,0.9-0.6,1.2-1.1
		c0.3-0.6,0.3-0.9-0.2-1.2c-0.5-0.2-0.9-0.3-1.3-0.1c-0.5,0.3-1.1,0.6-1.7,0.9c-0.6,0.3-1.2,0.6-1.8,1c-1.3,0.7-3.5,1.8-4.8,2.3
		c-1.4,0.5-9.2,4-13.5,0.4c-1.3-1.1-1.4-2.6-1.3-2.7c0.2-0.1,0.3-0.2,0.5-0.2c6.9-3,10.7-7,10.3-8.9c-0.1-0.5-0.3-1.2-1.1-1.6
		c-1.4-0.8-4.2-1.6-8,1.4c-1.3,1-3,3.9-3.5,5.9C77.4,55.8,77.3,57,77.2,57.4L77.2,57.4z"/>
</g>
</svg>
